<svg width="176" height="158" viewBox="0 0 176 158" fill="none" xmlns="http://www.w3.org/2000/svg">
<path d="M110.6 61.3C110.6 61.3 119.3 46.2 127.7 61.3C136.1 76.4 155.8 110.4 155.8 110.4C155.8 110.4 164 125 149.3 124.9C134.6 124.8 86.9 124.9 86.9 124.9C86.9 124.9 74.4 124.1 81.4 111.5C88.4 98.9 110.6 61.3 110.6 61.3Z" fill="#FF9E00"/>
<path d="M82.4 4.09999C82.4 4.09999 87.4 -4.6 93.3 4.3C97.6 10.8 112 36.7 112 36.7C112 36.7 115.1 42.7 111 50.1C107.9 55.7 72.3 116.3 72.3 116.3C72.3 116.3 67.2 124.9 59.5 124.8C51.8 124.7 23.3 124.8 23.3 124.8C23.3 124.8 13.4 124 19.1 114.2C24.8 104.4 82.4 4.09999 82.4 4.09999Z" fill="#7E35AF"/>
<path d="M111 151.8H95.7C95 151.8 94.5 151.5 94.5 150.5C94.5 149.7 94.5 146.5 94.5 146.4C94.5 145.9 95.2 145.4 95.6 145.4C96.1 145.4 109.3 145.4 109.3 145.4C109.9 145.4 110.3 144.9 110.3 144.3V142.1C110.3 141.4 109.8 141.1 109 141.1C109 141.1 95.9 141.1 95.7 141.1C94.9 141.1 94.6 140.5 94.6 140.1C94.6 139.7 94.6 137.6 94.6 136.6C94.6 135.6 95.3 135.4 96.1 135.4C96.3 135.4 110.6 135.4 110.6 135.4C111.5 135.4 111.8 134.9 111.8 134.3V131.8C111.8 131.2 111.4 130.6 110.7 130.6H88.6C88 130.6 87.5 131 87.5 131.6V155.4C87.5 156 88 156.4 88.6 156.4H111C111.7 156.4 112.1 155.9 112.1 155.4V152.7C112.1 152.2 111.6 151.8 111 151.8Z" fill="#86898F"/>
<path d="M56.3 143.9C53.8 142 50.1 141.4 47.2 141C45.9 140.8 44.5 140.6 43.3 140.2C42.2 139.9 40.9 139.4 40.1 138.5C39.3 137.6 39.7 136.6 40.6 135.9C41.8 134.9 43.5 134.6 45 134.6C46.4 134.6 47.9 134.8 49.1 135.5C49.7 135.9 50.2 136.4 50.6 137C50.9 137.6 51.1 138.5 52 138.4C53.4 138.4 55.3 138.5 56.8 138.4C57.3 138.4 57.7 138.2 57.8 137.7C57.9 137.1 57.6 136.1 57.3 135.6C57 135.1 56.8 134.6 56.4 134.1C54.6 132 52.3 131 49.7 130.6C48.3 130.4 46.4 130.2 45 130.2C37.1 130.2 32.9 133.8 32.8 138C32.7 139.5 33.6 141 34.6 142.1C35.7 143.3 37.3 143.9 38.8 144.4C40.6 144.9 42.4 145.4 44.2 145.7C45.5 145.9 46.8 146.2 48.1 146.6C50.8 147.5 52.2 148.6 52.2 150C52.2 151.1 49.8 152.7 45.7 152.7C43.2 152.7 40 152 38.8 149.6C38.6 149.3 38.6 148.8 38.4 148.6C37.9 148.1 37.2 148.1 36.6 148.1C35.6 148.1 34.5 148.1 33.5 148.2C32.9 148.2 32.1 148.2 31.9 148.8C31.5 149.9 32.6 151.8 33.2 152.7C34.5 154.6 36.5 155.7 38.7 156.4C43.6 158 48.9 157.8 53.8 156C55.4 155.4 56.9 154.6 57.8 153.2C58.9 151.6 59.4 149.6 58.9 147.7C58.2 145.9 57.4 144.8 56.3 143.9Z" fill="#86898F"/>
<path d="M84.1 130.7H60.3C59.4 130.7 58.9 130.8 58.9 131.7V134.7C58.9 135.5 59.9 135.5 60.3 135.5C60.3 135.5 66.1 135.5 67.5 135.5C68.7 135.5 68.7 136.6 68.7 137.5C68.7 137.8 68.7 155.5 68.7 155.5C68.7 156.1 69 156.6 69.3 156.6H74.9C75.5 156.6 75.7 156 75.7 155.5C75.7 155.5 75.7 139 75.7 137.6C75.7 136.6 75.7 135.6 77.1 135.6C78.5 135.6 84 135.6 84 135.6C84.6 135.6 85.4 135.4 85.4 134.7V131.8C85.4 131.2 85.2 130.7 84.1 130.7Z" fill="#86898F"/>
<path d="M141.9 151.6C141.9 148 140.4 145.6 138 144.4C137.9 144.4 138 144.2 138 144.2C140.5 142.7 142.2 140.8 142.2 138.3C142.2 135 140.1 130.8 132.2 130.8C132.2 130.8 116.9 130.8 116.5 130.8C116.1 130.8 115.2 131 115.2 131.9C115.2 132.9 115.2 155.8 115.2 155.8C115.2 156.1 115.5 156.6 116.2 156.6C116.9 156.6 120.6 156.6 121.2 156.6C121.8 156.6 122.2 156.1 122.2 155.8C122.2 155.8 122.3 147.8 122.3 147.3C122.3 146.7 122.8 146.5 123.6 146.5C124.1 146.5 130.4 146.6 130.4 146.6C131.7 146.6 133 147.1 133.9 148.1C134.3 148.6 134.6 149.3 134.8 149.9C135.1 151.2 135.2 152.4 135.4 153.7C135.5 154.3 135.6 155 135.8 155.6C135.9 156.1 136.3 156.5 136.9 156.5L142 156.6C142.5 156.6 142.7 156.3 142.7 155.8C142.6 155.7 141.9 153.4 141.9 151.6ZM131.5 142.3H123.3C122.7 142.3 122.3 141.8 122.3 141.3V136C122.3 135.4 122.8 135 123.3 135H131.5C133.5 135 135.1 136.6 135.1 138.6C135.1 140.7 133.5 142.3 131.5 142.3Z" fill="#86898F"/>
<path d="M174.3 155.8C174.3 155.5 174.2 155.2 174.1 155C173.9 154.7 173.8 154.3 173.6 154C173.2 153.1 163.8 133.3 163.3 132.4C163 131.8 162.8 131.2 162.2 130.9C161.8 130.7 161.3 130.6 160.8 130.6H156.6C156.1 130.6 155.6 130.7 155.2 130.9C154.7 131.2 154.4 131.9 154.1 132.4C153.7 133.3 144.2 153.1 143.8 154C143.6 154.3 143.5 154.7 143.3 155C143.2 155.2 143.1 155.5 143.1 155.8C143.1 155.9 143.1 156 143.2 156.1C143.4 156.4 143.8 156.4 144.2 156.4H149.3C149.7 156.4 150.2 156.2 150.3 155.8C150.3 155.8 152.2 151.6 152.3 151.3C152.5 151 153 150.6 154 150.6C154.5 150.6 156.5 150.6 158.5 150.6C160.5 150.6 162.5 150.6 163 150.6C164.1 150.6 164.6 150.9 164.7 151.3C164.9 151.6 166.7 155.8 166.7 155.8C166.9 156.1 167.3 156.4 167.7 156.4H172.8C173.1 156.4 173.6 156.4 173.8 156.1C174.3 156.1 174.3 156 174.3 155.8ZM162.8 146.3C162.7 146.5 162.4 146.6 162.2 146.6H155.6C155.3 146.6 155.1 146.5 155 146.3C154.9 146.1 154.8 145.8 154.9 145.6L158.2 138.4C158.3 138.1 158.6 138 158.9 138C159.2 138 159.5 138.2 159.6 138.4L162.9 145.6C162.9 145.8 162.9 146.1 162.8 146.3Z" fill="#86898F"/>
<path d="M32.1 155.8C32.1 155.5 32 155.2 31.9 155C31.7 154.7 31.6 154.3 31.4 154C31 153.1 21.6 133.3 21.1 132.4C20.8 131.8 20.6 131.2 20 130.9C19.6 130.7 19.1 130.6 18.6 130.6H14.4C13.9 130.6 13.4 130.7 13 130.9C12.5 131.2 12.2 131.9 11.9 132.4C11.5 133.3 2.00002 153.1 1.60002 154C1.40002 154.3 1.30002 154.7 1.10002 155C1.00002 155.2 0.900024 155.5 0.900024 155.8C0.900024 155.9 0.900023 156 1.00002 156.1C1.20002 156.4 1.60002 156.4 2.00002 156.4H7.10002C7.50002 156.4 8.00002 156.2 8.10002 155.8C8.10002 155.8 10 151.6 10.1 151.3C10.3 151 10.8 150.6 11.8 150.6C12.3 150.6 14.3 150.6 16.3 150.6C18.3 150.6 20.3 150.6 20.8 150.6C21.9 150.6 22.4 150.9 22.5 151.3C22.7 151.6 24.5 155.8 24.5 155.8C24.7 156.1 25.1 156.4 25.5 156.4H31C31.3 156.4 31.8 156.4 32 156.1C32.1 156.1 32.1 156 32.1 155.8ZM20.5 146.3C20.4 146.5 20.1 146.6 19.9 146.6H13.3C13 146.6 12.8 146.5 12.7 146.3C12.6 146.1 12.5 145.8 12.6 145.6L15.9 138.4C16 138.1 16.3 138 16.6 138C16.9 138 17.2 138.2 17.3 138.4L20.6 145.6C20.7 145.8 20.7 146.1 20.5 146.3Z" fill="#86898F"/>
</svg>